# xmcd CD database file
#
# Track frame offsets:
#	183
#	3623
#	25405
#	43468
#	71338
#	111128
#	131305
#	162345
#	182408
#	205870
#
# Disc length: 3074 seconds
#
# Revision: 0
# Processed by: cddbd v1.4PL0 Copyright (c) Steve Scherf et al.
# Submitted via: Feurio! 1.65 - http://www.feurio.com
#
DISCID=840c000a
DTITLE=Bo Diddley - Bo Diddley Living Legend
DYEAR=1900
DGENRE=Blues
TTITLE0=Turbo Diddley 2000
TTITLE1=R.U. Serious
TTITLE2=Jeanette Jeanette
TTITLE3=I Broke The Chain
TTITLE4=Bo-Pop Quake
TTITLE5=The Best
TTITLE6=I'll Lick Yo' Face
TTITLE7=U Killed It
TTITLE8=Goin' Home To McComb
TTITLE9=Just Like Bo Diddley
EXTD=ARD New Rose 188
EXTT0=
EXTT1=
EXTT2=
EXTT3=
EXTT4=
EXTT5=
EXTT6=
EXTT7=
EXTT8=
EXTT9=
PLAYORDER=
